<?xml version="1.0" encoding="UTF-8" standalone="no"?>
<!DOCTYPE svg PUBLIC "-//W3C//DTD SVG 1.1//EN"
 "http://www.w3.org/Graphics/SVG/1.1/DTD/svg11.dtd">
<!-- Generated by graphviz version 2.36.0 (20140111.2315)
 -->
<!-- Title: behave Pages: 1 -->
<svg width="884pt" height="188pt"
 viewBox="0.00 0.00 884.00 188.00" xmlns="http://www.w3.org/2000/svg" xmlns:xlink="http://www.w3.org/1999/xlink">
<g id="graph0" class="graph" transform="scale(1 1) rotate(0) translate(4 184)">
<title>behave</title>
<polygon fill="white" stroke="none" points="-4,4 -4,-184 880,-184 880,4 -4,4"/>
<!-- Behave -->
<g id="node1" class="node"><title>Behave</title>
<polygon fill="orange" stroke="black" points="556,-180 502,-180 502,-144 556,-144 556,-180"/>
<text text-anchor="middle" x="529" y="-159.2" font-family="Times,serif" font-size="11.00">Behave</text>
</g>
<!-- Startup -->
<g id="node2" class="node"><title>Startup</title>
<polygon fill="cyan" stroke="black" points="211.365,-82.5442 211.365,-97.4558 192.992,-108 167.008,-108 148.635,-97.4558 148.635,-82.5442 167.008,-72 192.992,-72 211.365,-82.5442"/>
<text text-anchor="middle" x="180" y="-87.2" font-family="Times,serif" font-size="11.00">Startup</text>
</g>
<!-- Behave&#45;&gt;Startup -->
<g id="edge1" class="edge"><title>Behave&#45;&gt;Startup</title>
<path fill="none" stroke="black" d="M501.905,-155.565C441.151,-143.38 293.716,-113.808 221.395,-99.3028"/>
<polygon fill="black" stroke="black" points="221.782,-95.8108 211.289,-97.2758 220.406,-102.674 221.782,-95.8108"/>
</g>
<!-- ServoTasks -->
<g id="node5" class="node"><title>ServoTasks</title>
<polygon fill="orange" stroke="black" points="455,-108 387,-108 387,-72 455,-72 455,-108"/>
<text text-anchor="middle" x="421" y="-87.2" font-family="Times,serif" font-size="11.00">ServoTasks</text>
</g>
<!-- Behave&#45;&gt;ServoTasks -->
<g id="edge4" class="edge"><title>Behave&#45;&gt;ServoTasks</title>
<path fill="none" stroke="black" d="M502.58,-143.876C488.59,-134.808 471.224,-123.552 456.114,-113.759"/>
<polygon fill="black" stroke="black" points="457.817,-110.692 447.521,-108.19 454.009,-116.566 457.817,-110.692"/>
</g>
<!-- MoveBaseTasks -->
<g id="node9" class="node"><title>MoveBaseTasks</title>
<polygon fill="orange" stroke="black" points="634.25,-108 543.75,-108 543.75,-72 634.25,-72 634.25,-108"/>
<text text-anchor="middle" x="589" y="-87.2" font-family="Times,serif" font-size="11.00">MoveBaseTasks</text>
</g>
<!-- Behave&#45;&gt;MoveBaseTasks -->
<g id="edge8" class="edge"><title>Behave&#45;&gt;MoveBaseTasks</title>
<path fill="none" stroke="black" d="M543.831,-143.697C551.025,-135.305 559.797,-125.07 567.69,-115.861"/>
<polygon fill="black" stroke="black" points="570.489,-117.975 574.339,-108.104 565.174,-113.419 570.489,-117.975"/>
</g>
<!-- Timer 3.0* -->
<g id="node13" class="node"><title>Timer 3.0*</title>
<ellipse fill="gray" stroke="black" cx="692" cy="-90" rx="39.1305" ry="18"/>
<text text-anchor="middle" x="692" y="-87.2" font-family="Times,serif" font-size="11.00">Timer 3.0*</text>
</g>
<!-- Behave&#45;&gt;Timer 3.0* -->
<g id="edge12" class="edge"><title>Behave&#45;&gt;Timer 3.0*</title>
<path fill="none" stroke="black" d="M556.283,-149.284C583.351,-137.659 625.023,-119.763 655.049,-106.868"/>
<polygon fill="black" stroke="black" points="656.548,-110.034 664.356,-102.872 653.786,-103.602 656.548,-110.034"/>
</g>
<!-- CheckServosReady -->
<g id="node3" class="node"><title>CheckServosReady</title>
<ellipse fill="gray" stroke="black" cx="62" cy="-18" rx="62.3086" ry="18"/>
<text text-anchor="middle" x="62" y="-15.2" font-family="Times,serif" font-size="11.00">CheckServosReady</text>
</g>
<!-- Startup&#45;&gt;CheckServosReady -->
<g id="edge2" class="edge"><title>Startup&#45;&gt;CheckServosReady</title>
<path fill="none" stroke="black" d="M158.904,-76.4854C141.696,-66.2771 117.027,-51.6434 96.8869,-39.6956"/>
<polygon fill="black" stroke="black" points="98.6682,-36.6828 88.2819,-34.591 95.0968,-42.7032 98.6682,-36.6828"/>
</g>
<!-- InitServos -->
<g id="node4" class="node"><title>InitServos</title>
<ellipse fill="gray" stroke="black" cx="180" cy="-18" rx="36.9265" ry="18"/>
<text text-anchor="middle" x="180" y="-15.2" font-family="Times,serif" font-size="11.00">InitServos</text>
</g>
<!-- Startup&#45;&gt;InitServos -->
<g id="edge3" class="edge"><title>Startup&#45;&gt;InitServos</title>
<path fill="none" stroke="black" d="M180,-71.6966C180,-63.9827 180,-54.7125 180,-46.1124"/>
<polygon fill="black" stroke="black" points="183.5,-46.1043 180,-36.1043 176.5,-46.1044 183.5,-46.1043"/>
</g>
<!-- CenterHead -->
<g id="node6" class="node"><title>CenterHead</title>
<ellipse fill="gray" stroke="black" cx="278" cy="-18" rx="42.5418" ry="18"/>
<text text-anchor="middle" x="278" y="-15.2" font-family="Times,serif" font-size="11.00">CenterHead</text>
</g>
<!-- ServoTasks&#45;&gt;CenterHead -->
<g id="edge5" class="edge"><title>ServoTasks&#45;&gt;CenterHead</title>
<path fill="none" stroke="black" d="M386.748,-72.2333C364.769,-61.4743 336.275,-47.5263 313.968,-36.6068"/>
<polygon fill="black" stroke="black" points="315.344,-33.3836 304.824,-32.1305 312.267,-39.6708 315.344,-33.3836"/>
</g>
<!-- PanHead -->
<g id="node7" class="node"><title>PanHead</title>
<ellipse fill="gray" stroke="black" cx="373" cy="-18" rx="33.9167" ry="18"/>
<text text-anchor="middle" x="373" y="-15.2" font-family="Times,serif" font-size="11.00">PanHead</text>
</g>
<!-- ServoTasks&#45;&gt;PanHead -->
<g id="edge6" class="edge"><title>ServoTasks&#45;&gt;PanHead</title>
<path fill="none" stroke="black" d="M409.135,-71.6966C403.328,-63.2287 396.236,-52.8852 389.877,-43.6117"/>
<polygon fill="black" stroke="black" points="392.612,-41.4125 384.071,-35.1446 386.839,-45.3712 392.612,-41.4125"/>
</g>
<!-- RelaxServos -->
<g id="node8" class="node"><title>RelaxServos</title>
<ellipse fill="gray" stroke="black" cx="469" cy="-18" rx="43.3478" ry="18"/>
<text text-anchor="middle" x="469" y="-15.2" font-family="Times,serif" font-size="11.00">RelaxServos</text>
</g>
<!-- ServoTasks&#45;&gt;RelaxServos -->
<g id="edge7" class="edge"><title>ServoTasks&#45;&gt;RelaxServos</title>
<path fill="none" stroke="black" d="M432.865,-71.6966C438.588,-63.3514 445.559,-53.1846 451.846,-44.0155"/>
<polygon fill="black" stroke="black" points="454.833,-45.849 457.602,-35.6223 449.06,-41.8902 454.833,-45.849"/>
</g>
<!-- Rotate 45 degrees -->
<g id="node10" class="node"><title>Rotate 45 degrees</title>
<ellipse fill="gray" stroke="black" cx="589" cy="-18" rx="57.9956" ry="18"/>
<text text-anchor="middle" x="589" y="-15.2" font-family="Times,serif" font-size="11.00">Rotate 45 degrees</text>
</g>
<!-- MoveBaseTasks&#45;&gt;Rotate 45 degrees -->
<g id="edge9" class="edge"><title>MoveBaseTasks&#45;&gt;Rotate 45 degrees</title>
<path fill="none" stroke="black" d="M589,-71.6966C589,-63.9827 589,-54.7125 589,-46.1124"/>
<polygon fill="black" stroke="black" points="592.5,-46.1043 589,-36.1043 585.5,-46.1044 592.5,-46.1043"/>
</g>
<!-- Timer 3.0 -->
<g id="node11" class="node"><title>Timer 3.0</title>
<ellipse fill="gray" stroke="black" cx="701" cy="-18" rx="36.1205" ry="18"/>
<text text-anchor="middle" x="701" y="-15.2" font-family="Times,serif" font-size="11.00">Timer 3.0</text>
</g>
<!-- MoveBaseTasks&#45;&gt;Timer 3.0 -->
<g id="edge10" class="edge"><title>MoveBaseTasks&#45;&gt;Timer 3.0</title>
<path fill="none" stroke="black" d="M616.398,-71.8761C632.791,-61.6307 653.653,-48.5919 670.559,-38.0258"/>
<polygon fill="black" stroke="black" points="672.865,-40.7117 679.49,-32.4436 669.155,-34.7757 672.865,-40.7117"/>
</g>
<!-- Rotate &#45;45 degrees -->
<g id="node12" class="node"><title>Rotate &#45;45 degrees</title>
<ellipse fill="gray" stroke="black" cx="816" cy="-18" rx="60.6022" ry="18"/>
<text text-anchor="middle" x="816" y="-15.2" font-family="Times,serif" font-size="11.00">Rotate &#45;45 degrees</text>
</g>
<!-- MoveBaseTasks&#45;&gt;Rotate &#45;45 degrees -->
<g id="edge11" class="edge"><title>MoveBaseTasks&#45;&gt;Rotate &#45;45 degrees</title>
<path fill="none" stroke="black" d="M634.32,-74.9886C637.596,-73.9769 640.849,-72.9726 644,-72 685.034,-59.3364 731.581,-44.9947 765.896,-34.4264"/>
<polygon fill="black" stroke="black" points="767.157,-37.7005 775.684,-31.4123 765.096,-31.0106 767.157,-37.7005"/>
</g>
</g>
</svg>
