<?xml version="1.0" encoding="UTF-8" standalone="no"?>
<!DOCTYPE svg PUBLIC "-//W3C//DTD SVG 1.1//EN"
 "http://www.w3.org/Graphics/SVG/1.1/DTD/svg11.dtd">
<!-- Generated by graphviz version 2.36.0 (20140111.2315)
 -->
<!-- Title: root Pages: 1 -->
<svg width="773pt" height="260pt"
 viewBox="0.00 0.00 773.00 260.00" xmlns="http://www.w3.org/2000/svg" xmlns:xlink="http://www.w3.org/1999/xlink">
<g id="graph0" class="graph" transform="scale(1 1) rotate(0) translate(4 256)">
<title>root</title>
<polygon fill="white" stroke="none" points="-4,4 -4,-256 769,-256 769,4 -4,4"/>
<!-- Root -->
<g id="node1" class="node"><title>Root</title>
<polygon fill="orange" stroke="black" points="296,-252 242,-252 242,-216 296,-216 296,-252"/>
<text text-anchor="middle" x="269" y="-231.2" font-family="Times,serif" font-size="11.00">Root</text>
</g>
<!-- Startup -->
<g id="node2" class="node"><title>Startup</title>
<polygon fill="cyan" stroke="black" points="211.365,-154.544 211.365,-169.456 192.992,-180 167.008,-180 148.635,-169.456 148.635,-154.544 167.008,-144 192.992,-144 211.365,-154.544"/>
<text text-anchor="middle" x="180" y="-159.2" font-family="Times,serif" font-size="11.00">Startup</text>
</g>
<!-- Root&#45;&gt;Startup -->
<g id="edge1" class="edge"><title>Root&#45;&gt;Startup</title>
<path fill="none" stroke="black" d="M247,-215.697C234.67,-205.999 219.213,-193.841 206.253,-183.648"/>
<polygon fill="black" stroke="black" points="208.179,-180.71 198.155,-177.279 203.851,-186.212 208.179,-180.71"/>
</g>
<!-- Behave -->
<g id="node5" class="node"><title>Behave</title>
<polygon fill="gold" stroke="black" points="379,-180 331,-180 331,-144 385,-144 385,-174 379,-180"/>
<polyline fill="none" stroke="black" points="379,-180 379,-174 "/>
<polyline fill="none" stroke="black" points="385,-174 379,-174 "/>
<text text-anchor="middle" x="358" y="-159.2" font-family="Times,serif" font-size="11.00">Behave</text>
</g>
<!-- Root&#45;&gt;Behave -->
<g id="edge4" class="edge"><title>Root&#45;&gt;Behave</title>
<path fill="none" stroke="black" d="M291,-215.697C302.209,-206.881 316.002,-196.032 328.154,-186.474"/>
<polygon fill="black" stroke="black" points="330.557,-189.038 336.253,-180.104 326.229,-183.535 330.557,-189.038"/>
</g>
<!-- CheckServosReady -->
<g id="node3" class="node"><title>CheckServosReady</title>
<ellipse fill="gray" stroke="black" cx="62" cy="-90" rx="62.3086" ry="18"/>
<text text-anchor="middle" x="62" y="-87.2" font-family="Times,serif" font-size="11.00">CheckServosReady</text>
</g>
<!-- Startup&#45;&gt;CheckServosReady -->
<g id="edge2" class="edge"><title>Startup&#45;&gt;CheckServosReady</title>
<path fill="none" stroke="black" d="M158.904,-148.485C141.696,-138.277 117.027,-123.643 96.8869,-111.696"/>
<polygon fill="black" stroke="black" points="98.6682,-108.683 88.2819,-106.591 95.0968,-114.703 98.6682,-108.683"/>
</g>
<!-- InitServos -->
<g id="node4" class="node"><title>InitServos</title>
<ellipse fill="gray" stroke="black" cx="180" cy="-90" rx="36.9265" ry="18"/>
<text text-anchor="middle" x="180" y="-87.2" font-family="Times,serif" font-size="11.00">InitServos</text>
</g>
<!-- Startup&#45;&gt;InitServos -->
<g id="edge3" class="edge"><title>Startup&#45;&gt;InitServos</title>
<path fill="none" stroke="black" d="M180,-143.697C180,-135.983 180,-126.712 180,-118.112"/>
<polygon fill="black" stroke="black" points="183.5,-118.104 180,-108.104 176.5,-118.104 183.5,-118.104"/>
</g>
<!-- Scan2BB -->
<g id="node6" class="node"><title>Scan2BB</title>
<ellipse fill="gray" stroke="black" cx="271" cy="-90" rx="35.2185" ry="18"/>
<text text-anchor="middle" x="271" y="-87.2" font-family="Times,serif" font-size="11.00">Scan2BB</text>
</g>
<!-- Behave&#45;&gt;Scan2BB -->
<g id="edge5" class="edge"><title>Behave&#45;&gt;Scan2BB</title>
<path fill="none" stroke="black" d="M336.494,-143.697C324.524,-134.065 309.538,-122.008 296.923,-111.858"/>
<polygon fill="black" stroke="black" points="299.017,-109.05 289.031,-105.508 294.629,-114.504 299.017,-109.05"/>
</g>
<!-- ServoTasks -->
<g id="node7" class="node"><title>ServoTasks</title>
<polygon fill="orange" stroke="black" points="392,-108 324,-108 324,-72 392,-72 392,-108"/>
<text text-anchor="middle" x="358" y="-87.2" font-family="Times,serif" font-size="11.00">ServoTasks</text>
</g>
<!-- Behave&#45;&gt;ServoTasks -->
<g id="edge6" class="edge"><title>Behave&#45;&gt;ServoTasks</title>
<path fill="none" stroke="black" d="M358,-143.697C358,-135.983 358,-126.712 358,-118.112"/>
<polygon fill="black" stroke="black" points="361.5,-118.104 358,-108.104 354.5,-118.104 361.5,-118.104"/>
</g>
<!-- MoveBaseTasks -->
<g id="node11" class="node"><title>MoveBaseTasks</title>
<polygon fill="orange" stroke="black" points="523.25,-108 432.75,-108 432.75,-72 523.25,-72 523.25,-108"/>
<text text-anchor="middle" x="478" y="-87.2" font-family="Times,serif" font-size="11.00">MoveBaseTasks</text>
</g>
<!-- Behave&#45;&gt;MoveBaseTasks -->
<g id="edge10" class="edge"><title>Behave&#45;&gt;MoveBaseTasks</title>
<path fill="none" stroke="black" d="M385.23,-145.116C401.365,-135.704 422.06,-123.632 439.808,-113.278"/>
<polygon fill="black" stroke="black" points="441.907,-116.106 448.781,-108.044 438.38,-110.06 441.907,-116.106"/>
</g>
<!-- Timer 3.0* -->
<g id="node15" class="node"><title>Timer 3.0*</title>
<ellipse fill="gray" stroke="black" cx="581" cy="-90" rx="39.1305" ry="18"/>
<text text-anchor="middle" x="581" y="-87.2" font-family="Times,serif" font-size="11.00">Timer 3.0*</text>
</g>
<!-- Behave&#45;&gt;Timer 3.0* -->
<g id="edge14" class="edge"><title>Behave&#45;&gt;Timer 3.0*</title>
<path fill="none" stroke="black" d="M385.226,-153.058C419.561,-142.962 480.354,-124.818 532,-108 535.082,-106.996 538.267,-105.939 541.463,-104.862"/>
<polygon fill="black" stroke="black" points="542.665,-108.15 551.002,-101.611 540.407,-101.525 542.665,-108.15"/>
</g>
<!-- CenterHead -->
<g id="node8" class="node"><title>CenterHead</title>
<ellipse fill="gray" stroke="black" cx="167" cy="-18" rx="42.5418" ry="18"/>
<text text-anchor="middle" x="167" y="-15.2" font-family="Times,serif" font-size="11.00">CenterHead</text>
</g>
<!-- ServoTasks&#45;&gt;CenterHead -->
<g id="edge7" class="edge"><title>ServoTasks&#45;&gt;CenterHead</title>
<path fill="none" stroke="black" d="M323.771,-75.3514C320.809,-74.2056 317.855,-73.0751 315,-72 279.203,-58.5182 238.241,-43.9124 208.499,-33.4543"/>
<polygon fill="black" stroke="black" points="209.462,-30.0828 198.867,-30.0743 207.144,-36.688 209.462,-30.0828"/>
</g>
<!-- PanHead -->
<g id="node9" class="node"><title>PanHead</title>
<ellipse fill="gray" stroke="black" cx="262" cy="-18" rx="33.9167" ry="18"/>
<text text-anchor="middle" x="262" y="-15.2" font-family="Times,serif" font-size="11.00">PanHead</text>
</g>
<!-- ServoTasks&#45;&gt;PanHead -->
<g id="edge8" class="edge"><title>ServoTasks&#45;&gt;PanHead</title>
<path fill="none" stroke="black" d="M334.27,-71.6966C320.751,-61.8395 303.748,-49.441 289.63,-39.1471"/>
<polygon fill="black" stroke="black" points="291.412,-36.1148 281.27,-33.0511 287.288,-41.7709 291.412,-36.1148"/>
</g>
<!-- RelaxServos -->
<g id="node10" class="node"><title>RelaxServos</title>
<ellipse fill="gray" stroke="black" cx="358" cy="-18" rx="43.3478" ry="18"/>
<text text-anchor="middle" x="358" y="-15.2" font-family="Times,serif" font-size="11.00">RelaxServos</text>
</g>
<!-- ServoTasks&#45;&gt;RelaxServos -->
<g id="edge9" class="edge"><title>ServoTasks&#45;&gt;RelaxServos</title>
<path fill="none" stroke="black" d="M358,-71.6966C358,-63.9827 358,-54.7125 358,-46.1124"/>
<polygon fill="black" stroke="black" points="361.5,-46.1043 358,-36.1043 354.5,-46.1044 361.5,-46.1043"/>
</g>
<!-- Rotate 45 degrees -->
<g id="node12" class="node"><title>Rotate 45 degrees</title>
<ellipse fill="gray" stroke="black" cx="478" cy="-18" rx="57.9956" ry="18"/>
<text text-anchor="middle" x="478" y="-15.2" font-family="Times,serif" font-size="11.00">Rotate 45 degrees</text>
</g>
<!-- MoveBaseTasks&#45;&gt;Rotate 45 degrees -->
<g id="edge11" class="edge"><title>MoveBaseTasks&#45;&gt;Rotate 45 degrees</title>
<path fill="none" stroke="black" d="M478,-71.6966C478,-63.9827 478,-54.7125 478,-46.1124"/>
<polygon fill="black" stroke="black" points="481.5,-46.1043 478,-36.1043 474.5,-46.1044 481.5,-46.1043"/>
</g>
<!-- Timer 3.0 -->
<g id="node13" class="node"><title>Timer 3.0</title>
<ellipse fill="gray" stroke="black" cx="590" cy="-18" rx="36.1205" ry="18"/>
<text text-anchor="middle" x="590" y="-15.2" font-family="Times,serif" font-size="11.00">Timer 3.0</text>
</g>
<!-- MoveBaseTasks&#45;&gt;Timer 3.0 -->
<g id="edge12" class="edge"><title>MoveBaseTasks&#45;&gt;Timer 3.0</title>
<path fill="none" stroke="black" d="M505.398,-71.8761C521.791,-61.6307 542.653,-48.5919 559.559,-38.0258"/>
<polygon fill="black" stroke="black" points="561.865,-40.7117 568.49,-32.4436 558.155,-34.7757 561.865,-40.7117"/>
</g>
<!-- Rotate &#45;45 degrees -->
<g id="node14" class="node"><title>Rotate &#45;45 degrees</title>
<ellipse fill="gray" stroke="black" cx="705" cy="-18" rx="60.6022" ry="18"/>
<text text-anchor="middle" x="705" y="-15.2" font-family="Times,serif" font-size="11.00">Rotate &#45;45 degrees</text>
</g>
<!-- MoveBaseTasks&#45;&gt;Rotate &#45;45 degrees -->
<g id="edge13" class="edge"><title>MoveBaseTasks&#45;&gt;Rotate &#45;45 degrees</title>
<path fill="none" stroke="black" d="M523.32,-74.9886C526.596,-73.9769 529.849,-72.9726 533,-72 574.034,-59.3364 620.581,-44.9947 654.896,-34.4264"/>
<polygon fill="black" stroke="black" points="656.157,-37.7005 664.684,-31.4123 654.096,-31.0106 656.157,-37.7005"/>
</g>
</g>
</svg>
